Patient4_TMGait_0pt4_02_right_20_GRF.mot
version=1
nRows=51
nColumns=19
inDegrees=no
endheader
time	F1x	F1y	F1z	M1x	M1y	M1z	F2x	F2y	F2z	M2x	M2y	M2z	EC1x	EC1y	EC1z	EC2x	EC2y	EC2z
26.14	-4.6201	787.5625	80.2766	-289.7555	-83.1079	859.8341	-1.2985	32.5486	-1.6326	8.3646	0.28225	48.7542	-0.0592	0.0182	-0.0073	-0.0462	0.0165	0.9585
26.1535	-1.7034	783.2818	74.9291	-288.1176	-77.2811	853.6431	-0.90656	22.9298	-1.1477	5.9941	0.26036	34.1297	-0.0592	0.0182	-0.0073	-0.0462	0.0165	0.9585
26.167	1.2208	777.7696	70.0745	-286.0571	-71.6947	845.5188	-0.62393	14.8205	-0.75455	4.0035	0.26851	21.8041	-0.0592	0.0182	-0.0073	-0.0462	0.0165	0.9585
26.1805	4.0319	771.4285	65.9518	-283.7196	-66.611	835.9637	-0.43792	8.6897	-0.47203	2.5056	0.30063	12.4811	-0.0592	0.0182	-0.0073	-0.0462	0.0165	0.9585
26.194	6.6521	764.8354	62.6448	-281.3067	-62.1728	825.7196	-0.32652	4.4981	-0.28602	1.4884	0.33876	6.1003	-0.0592	0.0182	-0.0073	-0.0462	0.0165	0.9585
26.2075	9.0504	758.6041	60.1259	-279.0313	-58.4246	815.5751	-0.29841	1.9642	-0.18081	0.87826	0.38442	2.2381	-0.0592	0.0182	-0.0073	-0.0462	0.0165	0.9585
26.221	11.2214	753.2977	58.3136	-277.0878	-55.3501	806.2518	-0.31863	0.66421	-0.13478	0.56704	0.43118	0.24566	-0.0592	0.0182	-0.0073	-0.0462	0.0165	0.9585
26.2345	13.1774	749.3647	57.1194	-275.6265	-52.9112	798.3281	-0.40894	0.18591	-0.13137	0.44776	0.49418	-0.48595	-0.0592	0.0182	-0.0073	-0.0462	0.0165	0.9585
26.248	14.9677	747.0708	56.4498	-274.7367	-51.044	792.1455	-0.55788	0.13226	-0.15273	0.41577	0.57236	-0.54904	-0.0592	0.0182	-0.0073	-0.0462	0.0165	0.9585
26.2615	16.6542	746.5021	56.25	-274.4445	-49.7041	787.8302	-0.75903	0.17354	-0.19153	0.38075	0.66742	-0.42056	-0.0592	0.0182	-0.0073	-0.0462	0.0165	0.9585
26.275	18.3212	747.5668	56.4642	-274.7138	-48.8302	785.2858	-1.0152	0.04536	-0.23665	0.26548	0.77684	-0.46383	-0.0592	0.0182	-0.0073	-0.0462	0.0165	0.9585
26.2885	20.0131	750.0053	57.0687	-275.4449	-48.3911	784.2512	-1.2915	-0.47781	-0.27846	0.0020255	0.89072	-0.98707	-0.0592	0.0182	-0.0073	-0.0462	0.0165	0.9585
26.302	21.7787	753.4064	58.0066	-276.4841	-48.315	784.3003	-1.5661	-1.5191	-0.30915	-0.44975	0.99781	-2.1477	-0.0592	0.0182	-0.0073	-0.0462	0.0165	0.9585
26.3155	23.649	757.2327	59.234	-277.6329	-48.5395	784.8974	-1.7512	-3.1358	-0.31359	-1.105	1.0542	-4.0286	-0.0592	0.0182	-0.0073	-0.0462	0.0165	0.9585
26.329	25.6267	760.8313	60.6653	-278.6504	-48.9682	785.403	-1.7545	-5.2464	-0.27129	-1.9309	0.99388	-6.5278	-0.0592	0.0182	-0.0073	-0.0462	0.0165	0.9585
26.3425	27.6967	763.4216	62.2442	-279.2489	-49.5404	785.0455	-1.4259	-7.573	-0.15461	-2.8228	0.72479	-9.3053	-0.0592	0.0182	-0.0073	-0.0462	0.0165	0.9585
26.356	29.7955	764.2155	63.8939	-279.1365	-50.196	783.0619	-0.55347	-9.5744	0.063775	-3.5764	0.13647	-11.6979	-0.0592	0.0182	-0.0073	-0.0462	0.0165	0.9585
26.3695	31.875	762.5235	65.5542	-278.058	-50.8888	778.7823	1.0688	-10.3533	0.41525	-3.853	-0.88674	-12.5955	-0.0592	0.0182	-0.0073	-0.0462	0.0165	0.9585
26.383	33.9046	757.8352	67.1405	-275.8237	-51.5458	771.7173	3.6822	-8.6047	0.92028	-3.1568	-2.4538	-10.4149	-0.0592	0.0182	-0.0073	-0.0462	0.0165	0.9585
26.3965	35.881	749.832	68.567	-272.3143	-52.089	761.5629	7.4401	-2.5544	1.5866	-0.82142	-4.6207	-3.0004	-0.0592	0.0182	-0.0073	-0.0462	0.0165	0.9585
26.41	37.8146	738.2646	69.7138	-267.4405	-52.4075	748.0734	12.3361	9.9172	2.3918	3.9503	-7.3404	12.2188	-0.0592	0.0182	-0.0073	-0.0462	0.0165	0.9585
26.4235	39.6502	722.7904	70.4287	-261.0829	-52.3827	730.9487	18.0713	31.0605	3.2513	12.0002	-10.3844	37.9766	-0.0592	0.0182	-0.0073	-0.0462	0.0165	0.9585
26.437	41.2508	702.7992	70.4897	-253.0391	-51.8562	709.6396	23.8696	62.792	3.9919	24.0349	-13.2414	76.5967	-0.0592	0.0182	-0.0073	-0.0462	0.0165	0.9585
26.4505	42.3469	677.4112	69.6294	-243.0242	-50.6714	683.3619	28.2834	105.8709	4.3134	40.3195	-15.0017	128.9801	-0.0592	0.0182	-0.0073	-0.0462	0.0165	0.9585
26.464	42.5969	645.6266	67.5399	-230.7296	-48.6572	651.2063	29.0679	158.8732	3.7406	60.282	-14.2702	193.3844	-0.0592	0.0182	-0.0073	-0.0462	0.0165	0.9585
26.4775	41.6975	606.7463	63.9851	-215.9726	-45.6941	612.5065	24.6431	218.0513	1.5138	82.4344	-9.5877	265.3068	-0.0592	0.0182	-0.0073	-0.0462	0.0165	0.9585
26.491	39.5112	560.9909	58.8682	-198.9047	-41.7318	567.4194	16.1551	278.5946	-2.9647	104.894	-0.75672	338.8692	-0.0592	0.0182	-0.0073	-0.0462	0.0165	0.9585
26.5045	36.1952	509.6672	52.4321	-180.051	-36.9339	517.0501	6.0201	336.8791	-9.5626	126.278	11.1229	409.3902	-0.0592	0.0182	-0.0073	-0.0462	0.0165	0.9585
26.518	32.0913	454.7231	45.2036	-160.1365	-31.6599	463.0821	-4.0493	391.8265	-17.6531	146.2035	24.6293	475.3061	-0.0592	0.0182	-0.0073	-0.0462	0.0165	0.9585
26.5315	27.5218	398.0297	37.8147	-139.8221	-26.375	407.1288	-13.082	443.9037	-26.1746	164.9145	38.1548	537.0776	-0.0592	0.0182	-0.0073	-0.0462	0.0165	0.9585
26.545	22.6255	341.0511	30.8303	-119.5899	-21.5538	350.5006	-20.7268	493.6659	-34.3996	182.7005	50.6865	595.3892	-0.0592	0.0182	-0.0073	-0.0462	0.0165	0.9585
26.5585	17.4012	285.1182	24.5843	-99.8544	-17.5067	294.4962	-26.8962	541.5923	-41.8076	199.8114	61.6006	650.8256	-0.0592	0.0182	-0.0073	-0.0462	0.0165	0.9585
26.572	11.8926	231.6449	19.2107	-81.0589	-14.3515	240.5567	-31.4554	588.061	-48.3038	216.4321	70.7481	703.8216	-0.0592	0.0182	-0.0073	-0.0462	0.0165	0.9585
26.5855	6.2348	182.1815	14.6983	-63.7013	-12.0415	190.3166	-34.3046	632.9353	-53.9097	232.5353	78.1474	754.2245	-0.0592	0.0182	-0.0073	-0.0462	0.0165	0.9585
26.599	0.76834	138.1677	11.0035	-48.2606	-10.4326	145.2956	-35.5806	675.1633	-58.7876	247.7366	84.0502	800.8713	-0.0592	0.0182	-0.0073	-0.0462	0.0165	0.9585
26.6125	-4.0266	100.6205	8.0349	-35.0855	-9.2793	106.6049	-35.6325	713.2162	-63.0839	261.4578	88.775	842.1044	-0.0592	0.0182	-0.0073	-0.0462	0.0165	0.9585
26.626	-7.6558	69.8882	5.7009	-24.3023	-8.3217	74.687	-34.8959	745.7643	-66.7588	273.1939	92.4593	876.5487	-0.0592	0.0182	-0.0073	-0.0462	0.0165	0.9585
26.6395	-9.7564	45.6912	3.8854	-15.8235	-7.32	49.3356	-33.7425	771.9722	-69.6807	282.6204	95.0982	903.4218	-0.0592	0.0182	-0.0073	-0.0462	0.0165	0.9585
26.653	-10.2152	27.3626	2.4898	-9.4203	-6.1361	29.9696	-32.4228	791.4501	-71.6936	289.5684	96.6123	922.4501	-0.0592	0.0182	-0.0073	-0.0462	0.0165	0.9585
26.6665	-9.2125	14.1148	1.426	-4.8143	-4.7508	15.8407	-31.1524	804.0807	-72.8041	293.9482	97.0788	933.6819	-0.0592	0.0182	-0.0073	-0.0462	0.0165	0.9585
26.68	-7.3278	5.2224	0.66639	-1.7387	-3.3413	6.2523	-30.1322	810.0002	-73.0972	295.7556	96.6712	937.4375	-0.0592	0.0182	-0.0073	-0.0462	0.0165	0.9585
26.6935	-5.2183	-0.096652	0.18073	0.090577	-2.1112	0.43235	-29.4984	809.7363	-72.7887	295.1307	95.6833	934.4592	-0.0592	0.0182	-0.0073	-0.0462	0.0165	0.9585
26.707	-3.2797	-2.756	-0.072913	0.99479	-1.1622	-2.5548	-29.2587	804.3011	-72.0539	292.412	94.3271	925.9689	-0.0592	0.0182	-0.0073	-0.0462	0.0165	0.9585
26.7205	-1.7178	-3.6093	-0.16425	1.2735	-0.50357	-3.5907	-29.3117	795.1391	-71.0919	288.1199	92.7931	913.6112	-0.0592	0.0182	-0.0073	-0.0462	0.0165	0.9585
26.734	-0.56866	-3.3759	-0.15204	1.178	-0.09805	-3.4509	-29.4855	783.9014	-70.046	282.8775	91.1931	899.2023	-0.0592	0.0182	-0.0073	-0.0462	0.0165	0.9585
26.7475	0.19161	-2.5926	-0.089612	0.8958	0.11348	-2.7006	-29.6152	772.1533	-69.0486	277.2986	89.6268	884.4233	-0.0592	0.0182	-0.0073	-0.0462	0.0165	0.9585
26.761	0.63703	-1.6205	-0.012977	0.5518	0.19441	-1.7172	-29.5881	761.2298	-68.1489	271.9323	88.1284	870.6712	-0.0592	0.0182	-0.0073	-0.0462	0.0165	0.9585
26.7745	0.85644	-0.68105	0.065052	0.21958	0.19356	-0.73872	-29.3316	752.1648	-67.3708	267.2321	86.7187	858.9844	-0.0592	0.0182	-0.0073	-0.0462	0.0165	0.9585
26.788	0.9168	0.11669	0.12972	-0.066252	0.15423	0.11876	-28.7969	745.6818	-66.6963	263.5447	85.3804	850.0376	-0.0592	0.0182	-0.0073	-0.0462	0.0165	0.9585
26.8015	0.88712	0.72708	0.18665	-0.29001	0.098769	0.78369	-27.945	742.2212	-66.0893	261.1119	84.069	844.1948	-0.0592	0.0182	-0.0073	-0.0462	0.0165	0.9585
26.815	0.8043	1.1718	0.23036	-0.4564	0.042353	1.274	-26.749	741.9765	-65.4804	260.0759	82.7018	841.5638	-0.0592	0.0182	-0.0073	-0.0462	0.0165	0.9585
